<svg width="36" height="24" viewBox="0 0 36 24" fill="none" xmlns="http://www.w3.org/2000/svg">
<path d="M33.2994 0H2.70065C2.33759 0.0082129 1.97976 0.0856944 1.64758 0.228025C1.31541 0.370355 1.0154 0.574742 0.764688 0.829518C0.513975 1.08429 0.317471 1.38447 0.186395 1.71289C0.0553197 2.04132 -0.00775901 2.39157 0.00076118 2.74364V21.2564C-0.00775901 21.6084 0.0553197 21.9587 0.186395 22.2871C0.317471 22.6155 0.513975 22.9157 0.764688 23.1705C1.0154 23.4252 1.31541 23.6296 1.64758 23.772C1.97976 23.9143 2.33759 23.9918 2.70065 24H33.2994C33.6624 23.9918 34.0202 23.9143 34.3524 23.772C34.6846 23.6296 34.9846 23.4252 35.2353 23.1705C35.486 22.9157 35.6825 22.6155 35.8136 22.2871C35.9447 21.9587 36.0078 21.6084 35.9992 21.2564V2.74364C36.0078 2.39157 35.9447 2.04132 35.8136 1.71289C35.6825 1.38447 35.486 1.08429 35.2353 0.829518C34.9846 0.574742 34.6846 0.370355 34.3524 0.228025C34.0202 0.0856944 33.6624 0.0082129 33.2994 0Z" fill="#F5F5F5"/>
<path d="M0.150391 1.84582H35.8519C35.6819 1.31702 35.344 0.853802 34.8865 0.522317C34.4289 0.190832 33.875 0.00802507 33.3039 0H2.69841C2.1273 0.00802507 1.5734 0.190832 1.11581 0.522317C0.658219 0.853802 0.320331 1.31702 0.150391 1.84582Z" fill="#FF4B55"/>
<path d="M35.9992 7.3844H0.000732422V9.23022H35.9992V7.3844Z" fill="#FF4B55"/>
<path d="M35.9992 3.69165H0.000732422V5.53747H35.9992V3.69165Z" fill="#FF4B55"/>
<path d="M0.000905007 12.2912C-0.00302109 12.4548 0.0601738 12.6132 0.176608 12.7317C0.293041 12.8501 0.453192 12.9188 0.621879 12.9228H35.9994V11.0792H0.000905007V12.2912Z" fill="#FF4B55"/>
<path d="M35.9992 18.4614H0.000732422V20.3072H35.9992V18.4614Z" fill="#FF4B55"/>
<path d="M35.8519 22.1542H0.150391C0.320331 22.683 0.658219 23.1462 1.11581 23.4777C1.5734 23.8091 2.1273 23.992 2.69841 24H33.305C33.8759 23.9917 34.4295 23.8088 34.8869 23.4774C35.3443 23.1459 35.682 22.6828 35.8519 22.1542Z" fill="#FF4B55"/>
<path d="M35.9992 14.7698H0.000732422V16.6156H35.9992V14.7698Z" fill="#FF4B55"/>
<path d="M0.621735 12.9229H16.1382C16.3069 12.9189 16.467 12.8501 16.5835 12.7317C16.6999 12.6133 16.7631 12.4549 16.7592 12.2913V0.631631C16.7631 0.468044 16.6999 0.309637 16.5835 0.191204C16.467 0.0727707 16.3069 0.00400311 16.1382 0H2.70065C2.33759 0.0082129 1.97976 0.0856944 1.64758 0.228025C1.31541 0.370355 1.0154 0.574742 0.764688 0.829518C0.513975 1.08429 0.317471 1.38447 0.186395 1.71289C0.0553197 2.04132 -0.00775901 2.39157 0.00076118 2.74364V12.2913C-0.00316492 12.4549 0.0600299 12.6133 0.176464 12.7317C0.292898 12.8501 0.453048 12.9189 0.621735 12.9229Z" fill="#41479B"/>
<path d="M1.74334 1.44984L1.88059 1.86876H2.31482C2.32781 1.86912 2.34036 1.87344 2.35068 1.88111C2.36099 1.88879 2.36856 1.89941 2.37229 1.91149C2.37603 1.92356 2.37575 1.93648 2.37149 1.94839C2.36723 1.9603 2.35921 1.9706 2.34857 1.97784L1.99871 2.24076L2.1292 2.66184C2.13327 2.67333 2.13351 2.68577 2.12988 2.6974C2.12624 2.70902 2.11893 2.71925 2.10897 2.72661C2.09901 2.73398 2.08691 2.73811 2.07438 2.73843C2.06186 2.73875 2.04955 2.73524 2.03921 2.72839L1.68597 2.47094L1.33274 2.72839C1.32239 2.73524 1.31008 2.73875 1.29756 2.73843C1.28504 2.73811 1.27294 2.73398 1.26297 2.72661C1.25301 2.71925 1.2457 2.70902 1.24207 2.6974C1.23843 2.68577 1.23867 2.67333 1.24274 2.66184L1.37323 2.24076L1.02337 1.97784C1.01266 1.97055 1.00461 1.96015 1.00039 1.94813C0.996158 1.93612 0.995969 1.92311 0.999845 1.91099C1.00372 1.89886 1.01146 1.88824 1.02196 1.88065C1.03245 1.87306 1.04516 1.8689 1.05825 1.86876H1.49248L1.62972 1.44984C1.63166 1.43657 1.63847 1.42441 1.64891 1.41562C1.65934 1.40682 1.67271 1.40198 1.68653 1.40198C1.70036 1.40198 1.71372 1.40682 1.72416 1.41562C1.7346 1.42441 1.74141 1.43657 1.74334 1.44984Z" fill="#F5F5F5"/>
<path d="M1.74334 3.64366L1.88059 4.06257H2.31482C2.32781 4.06293 2.34036 4.06725 2.35068 4.07492C2.36099 4.08259 2.36856 4.09322 2.37229 4.1053C2.37603 4.11737 2.37575 4.13028 2.37149 4.14219C2.36723 4.1541 2.35921 4.16441 2.34857 4.17165L1.99871 4.43456L2.1292 4.85565C2.13327 4.86714 2.13351 4.87958 2.12988 4.8912C2.12624 4.90283 2.11893 4.91305 2.10897 4.92042C2.09901 4.92778 2.08691 4.93192 2.07438 4.93224C2.06186 4.93256 2.04955 4.92905 2.03921 4.9222L1.68597 4.66584L1.33274 4.92328C1.32239 4.93013 1.31008 4.93366 1.29756 4.93334C1.28504 4.93302 1.27294 4.92888 1.26297 4.92152C1.25301 4.91415 1.2457 4.90393 1.24207 4.8923C1.23843 4.88068 1.23867 4.86824 1.24274 4.85675L1.37323 4.43566L1.02337 4.17275C1.01266 4.16545 1.00461 4.15505 1.00039 4.14304C0.996158 4.13102 0.995969 4.11801 0.999845 4.10588C1.00372 4.09376 1.01146 4.08314 1.02196 4.07555C1.03245 4.06796 1.04516 4.06379 1.05825 4.06365H1.49248L1.62972 3.64474C1.63152 3.63144 1.6382 3.61921 1.64855 3.61032C1.6589 3.60142 1.67221 3.59645 1.68604 3.59632C1.69988 3.59618 1.71329 3.6009 1.72382 3.6096C1.73435 3.6183 1.74128 3.63039 1.74334 3.64366Z" fill="#F5F5F5"/>
<path d="M1.74334 5.83639L1.88059 6.2553H2.31482C2.32781 6.25567 2.34036 6.26 2.35068 6.26767C2.36099 6.27534 2.36856 6.28596 2.37229 6.29803C2.37603 6.31011 2.37575 6.32302 2.37149 6.33494C2.36723 6.34685 2.35921 6.35716 2.34857 6.3644L1.99871 6.62731L2.1292 7.0484C2.13327 7.05989 2.13351 7.07233 2.12988 7.08395C2.12624 7.09558 2.11893 7.1058 2.10897 7.11317C2.09901 7.12053 2.08691 7.12467 2.07438 7.12499C2.06186 7.12531 2.04955 7.12178 2.03921 7.11493L1.68597 6.85858L1.33274 7.11603C1.32239 7.12288 1.31008 7.12639 1.29756 7.12607C1.28504 7.12575 1.27294 7.12162 1.26297 7.11425C1.25301 7.10688 1.2457 7.09666 1.24207 7.08504C1.23843 7.07341 1.23867 7.06097 1.24274 7.04948L1.37323 6.62839L1.02337 6.36548C1.01266 6.35818 1.00461 6.34778 1.00039 6.33577C0.996158 6.32375 0.995969 6.31076 0.999845 6.29863C1.00372 6.28651 1.01146 6.27587 1.02196 6.26829C1.03245 6.2607 1.04516 6.25654 1.05825 6.2564H1.49248L1.62972 5.83749C1.63152 5.82419 1.6382 5.81196 1.64855 5.80306C1.6589 5.79417 1.67221 5.7892 1.68604 5.78907C1.69988 5.78893 1.71329 5.79365 1.72382 5.80235C1.73435 5.81105 1.74128 5.82313 1.74334 5.83639Z" fill="#F5F5F5"/>
<path d="M1.74334 8.02907L1.88059 8.44799H2.31482C2.32781 8.44835 2.34036 8.45267 2.35068 8.46034C2.36099 8.46801 2.36856 8.47864 2.37229 8.49072C2.37603 8.50279 2.37575 8.51569 2.37149 8.5276C2.36723 8.53952 2.35921 8.54983 2.34857 8.55707L1.99871 8.81997L2.1292 9.24107C2.13327 9.25256 2.13351 9.265 2.12988 9.27662C2.12624 9.28825 2.11893 9.29847 2.10897 9.30584C2.09901 9.3132 2.08691 9.31734 2.07438 9.31766C2.06186 9.31797 2.04955 9.31447 2.03921 9.30762L1.68597 9.05017L1.33274 9.30762C1.32239 9.31447 1.31008 9.31797 1.29756 9.31766C1.28504 9.31734 1.27294 9.3132 1.26297 9.30584C1.25301 9.29847 1.2457 9.28825 1.24207 9.27662C1.23843 9.265 1.23867 9.25256 1.24274 9.24107L1.37323 8.81997L1.02337 8.55707C1.01266 8.54977 1.00461 8.53937 1.00039 8.52735C0.996158 8.51534 0.995969 8.50234 0.999845 8.49022C1.00372 8.47809 1.01146 8.46746 1.02196 8.45987C1.03245 8.45228 1.04516 8.44813 1.05825 8.44799H1.49248L1.62972 8.02907C1.63166 8.0158 1.63847 8.00365 1.64891 7.99485C1.65934 7.98606 1.67271 7.9812 1.68653 7.9812C1.70036 7.9812 1.71372 7.98606 1.72416 7.99485C1.7346 8.00365 1.74141 8.0158 1.74334 8.02907Z" fill="#F5F5F5"/>
<path d="M1.74334 10.2229L1.88059 10.6418H2.31482C2.32781 10.6422 2.34036 10.6465 2.35068 10.6542C2.36099 10.6619 2.36856 10.6725 2.37229 10.6846C2.37603 10.6966 2.37575 10.7096 2.37149 10.7215C2.36723 10.7334 2.35921 10.7437 2.34857 10.7509L1.99871 11.0138L2.1292 11.4349C2.13327 11.4464 2.13351 11.4588 2.12988 11.4705C2.12624 11.4821 2.11893 11.4923 2.10897 11.4997C2.09901 11.507 2.08691 11.5112 2.07438 11.5115C2.06186 11.5118 2.04955 11.5083 2.03921 11.5015L1.68597 11.244L1.33274 11.5015C1.32239 11.5083 1.31008 11.5118 1.29756 11.5115C1.28504 11.5112 1.27294 11.507 1.26297 11.4997C1.25301 11.4923 1.2457 11.4821 1.24207 11.4705C1.23843 11.4588 1.23867 11.4464 1.24274 11.4349L1.37323 11.0138L1.02337 10.7509C1.01266 10.7436 1.00461 10.7332 1.00039 10.7212C0.996158 10.7092 0.995969 10.6962 0.999845 10.6841C1.00372 10.6719 1.01146 10.6613 1.02196 10.6537C1.03245 10.6461 1.04516 10.642 1.05825 10.6418H1.49248L1.62972 10.2229C1.63166 10.2096 1.63847 10.1975 1.64891 10.1887C1.65934 10.1799 1.67271 10.175 1.68653 10.175C1.70036 10.175 1.71372 10.1799 1.72416 10.1887C1.7346 10.1975 1.74141 10.2096 1.74334 10.2229Z" fill="#F5F5F5"/>
<path d="M3.41154 2.52551L3.54878 2.94442H3.98301C3.99601 2.94478 4.00855 2.9491 4.01887 2.95678C4.02919 2.96445 4.03675 2.97508 4.04049 2.98715C4.04422 2.99923 4.04394 3.01214 4.03968 3.02405C4.03542 3.03596 4.0274 3.04626 4.01676 3.05351L3.6669 3.31642L3.79852 3.73751C3.80259 3.749 3.80283 3.76143 3.7992 3.77306C3.79556 3.78469 3.78824 3.79491 3.77828 3.80227C3.76832 3.80964 3.75622 3.81377 3.7437 3.81409C3.73118 3.81441 3.71887 3.8109 3.70852 3.80405L3.35529 3.5466L3.00205 3.80405C2.9917 3.8109 2.9794 3.81441 2.96687 3.81409C2.95435 3.81377 2.94225 3.80964 2.93229 3.80227C2.92233 3.79491 2.91502 3.78469 2.91138 3.77306C2.90775 3.76143 2.90799 3.749 2.91206 3.73751L3.04368 3.31642L2.69382 3.05351C2.68317 3.04626 2.67515 3.03596 2.6709 3.02405C2.66664 3.01214 2.66635 2.99923 2.67009 2.98715C2.67382 2.97508 2.68139 2.96445 2.6917 2.95678C2.70202 2.9491 2.71457 2.94478 2.72756 2.94442H3.1618L3.29904 2.52551C3.30165 2.51291 3.30868 2.50157 3.31894 2.49343C3.32919 2.48528 3.34204 2.48083 3.35529 2.48083C3.36854 2.48083 3.38139 2.48528 3.39164 2.49343C3.4019 2.50157 3.40892 2.51291 3.41154 2.52551Z" fill="#F5F5F5"/>
<path d="M3.41154 4.71825L3.54878 5.13716H3.98301C3.99601 5.13752 4.00855 5.14185 4.01887 5.14953C4.02919 5.1572 4.03675 5.16781 4.04049 5.17989C4.04422 5.19196 4.04394 5.20488 4.03968 5.21679C4.03542 5.2287 4.0274 5.23901 4.01676 5.24625L3.6669 5.50916L3.79852 5.93025C3.80259 5.94174 3.80283 5.95418 3.7992 5.96581C3.79556 5.97744 3.78824 5.98766 3.77828 5.99502C3.76832 6.00239 3.75622 6.00652 3.7437 6.00684C3.73118 6.00716 3.71887 6.00364 3.70852 5.99679L3.35529 5.73934L3.00205 5.99679C2.9917 6.00364 2.9794 6.00716 2.96687 6.00684C2.95435 6.00652 2.94225 6.00239 2.93229 5.99502C2.92233 5.98766 2.91502 5.97744 2.91138 5.96581C2.90775 5.95418 2.90799 5.94174 2.91206 5.93025L3.04368 5.50916L2.69382 5.24625C2.68317 5.23901 2.67515 5.2287 2.6709 5.21679C2.66664 5.20488 2.66635 5.19196 2.67009 5.17989C2.67382 5.16781 2.68139 5.1572 2.6917 5.14953C2.70202 5.14185 2.71457 5.13752 2.72756 5.13716H3.1618L3.29904 4.71825C3.30165 4.70564 3.30868 4.69431 3.31894 4.68617C3.32919 4.67802 3.34204 4.67358 3.35529 4.67358C3.36854 4.67358 3.38139 4.67802 3.39164 4.68617C3.4019 4.69431 3.40892 4.70564 3.41154 4.71825Z" fill="#F5F5F5"/>
<path d="M3.41154 6.91199L3.54878 7.3309H3.98301C3.99601 7.33126 4.00855 7.33558 4.01887 7.34325C4.02919 7.35092 4.03675 7.36155 4.04049 7.37363C4.04422 7.3857 4.04394 7.39861 4.03968 7.41052C4.03542 7.42243 4.0274 7.43274 4.01676 7.43998L3.6669 7.70289L3.79852 8.12398C3.80259 8.13547 3.80283 8.14791 3.7992 8.15953C3.79556 8.17116 3.78824 8.18138 3.77828 8.18875C3.76832 8.19611 3.75622 8.20025 3.7437 8.20057C3.73118 8.20089 3.71887 8.19738 3.70852 8.19053L3.35529 7.93308L3.00205 8.19053C2.9917 8.19738 2.9794 8.20089 2.96687 8.20057C2.95435 8.20025 2.94225 8.19611 2.93229 8.18875C2.92233 8.18138 2.91502 8.17116 2.91138 8.15953C2.90775 8.14791 2.90799 8.13547 2.91206 8.12398L3.04368 7.70289L2.69382 7.43998C2.68317 7.43274 2.67515 7.42243 2.6709 7.41052C2.66664 7.39861 2.66635 7.3857 2.67009 7.37363C2.67382 7.36155 2.68139 7.35092 2.6917 7.34325C2.70202 7.33558 2.71457 7.33126 2.72756 7.3309H3.1618L3.29904 6.91199C3.30165 6.89939 3.30868 6.88805 3.31894 6.87991C3.32919 6.87177 3.34204 6.86731 3.35529 6.86731C3.36854 6.86731 3.38139 6.87177 3.39164 6.87991C3.4019 6.88805 3.40892 6.89939 3.41154 6.91199Z" fill="#F5F5F5"/>
<path d="M3.41154 9.10693L3.54878 9.52585H3.98301C3.99601 9.52621 4.00855 9.53053 4.01887 9.5382C4.02919 9.54587 4.03675 9.5565 4.04049 9.56858C4.04422 9.58065 4.04394 9.59357 4.03968 9.60548C4.03542 9.61739 4.0274 9.62769 4.01676 9.63493L3.6669 9.89785L3.79852 10.3189C3.80259 10.3304 3.80283 10.3429 3.7992 10.3545C3.79556 10.3661 3.78824 10.3763 3.77828 10.3837C3.76832 10.3911 3.75622 10.3952 3.7437 10.3955C3.73118 10.3958 3.71887 10.3923 3.70852 10.3855L3.35529 10.128L3.00205 10.3855C2.9917 10.3923 2.9794 10.3958 2.96687 10.3955C2.95435 10.3952 2.94225 10.3911 2.93229 10.3837C2.92233 10.3763 2.91502 10.3661 2.91138 10.3545C2.90775 10.3429 2.90799 10.3304 2.91206 10.3189L3.04368 9.89785L2.69382 9.63493C2.68317 9.62769 2.67515 9.61739 2.6709 9.60548C2.66664 9.59357 2.66635 9.58065 2.67009 9.56858C2.67382 9.5565 2.68139 9.54587 2.6917 9.5382C2.70202 9.53053 2.71457 9.52621 2.72756 9.52585H3.1618L3.29904 9.10693C3.30165 9.09433 3.30868 9.083 3.31894 9.07486C3.32919 9.06671 3.34204 9.06226 3.35529 9.06226C3.36854 9.06226 3.38139 9.06671 3.39164 9.07486C3.4019 9.083 3.40892 9.09433 3.41154 9.10693Z" fill="#F5F5F5"/>
<path d="M5.09232 1.44994L5.22956 1.86885H5.66379C5.67688 1.869 5.68959 1.87316 5.70008 1.88075C5.71058 1.88834 5.71832 1.89896 5.7222 1.91109C5.72607 1.92321 5.72588 1.93622 5.72165 1.94823C5.71742 1.96025 5.70938 1.97065 5.69867 1.97794L5.34881 2.24086L5.4793 2.66194C5.48337 2.67343 5.48361 2.68587 5.47998 2.6975C5.47634 2.70912 5.46903 2.71935 5.45906 2.72671C5.4491 2.73408 5.437 2.73821 5.42448 2.73853C5.41196 2.73885 5.39965 2.73534 5.3893 2.72849L5.03607 2.47104L4.68284 2.72849C4.67249 2.73534 4.66018 2.73885 4.64766 2.73853C4.63513 2.73821 4.62303 2.73408 4.61307 2.72671C4.60311 2.71935 4.5958 2.70912 4.59216 2.6975C4.58853 2.68587 4.58877 2.67343 4.59284 2.66194L4.72333 2.24086L4.37347 1.97794C4.36276 1.97065 4.35471 1.96025 4.35048 1.94823C4.34626 1.93622 4.34607 1.92321 4.34994 1.91109C4.35382 1.89896 4.36156 1.88834 4.37206 1.88075C4.38255 1.87316 4.39525 1.869 4.40834 1.86885H4.84258L4.97982 1.44994C4.98243 1.43734 4.98946 1.42601 4.99972 1.41787C5.00997 1.40972 5.02282 1.40527 5.03607 1.40527C5.04932 1.40527 5.06217 1.40972 5.07242 1.41787C5.08268 1.42601 5.0897 1.43734 5.09232 1.44994Z" fill="#F5F5F5"/>
<path d="M5.09232 3.64368L5.22956 4.06259H5.66379C5.67688 4.06273 5.68959 4.06689 5.70008 4.07447C5.71058 4.08206 5.71832 4.09269 5.7222 4.10482C5.72607 4.11694 5.72588 4.12994 5.72165 4.14196C5.71742 4.15397 5.70938 4.16437 5.69867 4.17167L5.34881 4.43458L5.4793 4.85567C5.48337 4.86716 5.48361 4.8796 5.47998 4.89122C5.47634 4.90285 5.46903 4.91307 5.45906 4.92044C5.4491 4.9278 5.437 4.93194 5.42448 4.93226C5.41196 4.93258 5.39965 4.92907 5.3893 4.92222L5.03607 4.66476L4.68284 4.92222C4.67249 4.92907 4.66018 4.93258 4.64766 4.93226C4.63513 4.93194 4.62303 4.9278 4.61307 4.92044C4.60311 4.91307 4.5958 4.90285 4.59216 4.89122C4.58853 4.8796 4.58877 4.86716 4.59284 4.85567L4.72333 4.43458L4.37347 4.17167C4.36276 4.16437 4.35471 4.15397 4.35048 4.14196C4.34626 4.12994 4.34607 4.11694 4.34994 4.10482C4.35382 4.09269 4.36156 4.08206 4.37206 4.07447C4.38255 4.06689 4.39525 4.06273 4.40834 4.06259H4.84258L4.97982 3.64368C4.98243 3.63108 4.98946 3.61974 4.99972 3.6116C5.00997 3.60346 5.02282 3.599 5.03607 3.599C5.04932 3.599 5.06217 3.60346 5.07242 3.6116C5.08268 3.61974 5.0897 3.63108 5.09232 3.64368Z" fill="#F5F5F5"/>
<path d="M5.09232 5.83641L5.22956 6.25532H5.66379C5.67688 6.25546 5.68959 6.25963 5.70008 6.26722C5.71058 6.27481 5.71832 6.28543 5.7222 6.29755C5.72607 6.30968 5.72588 6.32269 5.72165 6.33471C5.71742 6.34672 5.70938 6.35712 5.69867 6.36442L5.34881 6.62732L5.4793 7.04842C5.48337 7.05991 5.48361 7.07235 5.47998 7.08397C5.47634 7.0956 5.46903 7.10582 5.45906 7.11319C5.4491 7.12055 5.437 7.12469 5.42448 7.12501C5.41196 7.12532 5.39965 7.1218 5.3893 7.11495L5.03607 6.8575L4.68284 7.11495C4.67249 7.1218 4.66018 7.12532 4.64766 7.12501C4.63513 7.12469 4.62303 7.12055 4.61307 7.11319C4.60311 7.10582 4.5958 7.0956 4.59216 7.08397C4.58853 7.07235 4.58877 7.05991 4.59284 7.04842L4.72333 6.62732L4.37347 6.36442C4.36276 6.35712 4.35471 6.34672 4.35048 6.33471C4.34626 6.32269 4.34607 6.30968 4.34994 6.29755C4.35382 6.28543 4.36156 6.27481 4.37206 6.26722C4.38255 6.25963 4.39525 6.25546 4.40834 6.25532H4.84258L4.97982 5.83641C4.98243 5.82381 4.98946 5.81248 4.99972 5.80433C5.00997 5.79619 5.02282 5.79175 5.03607 5.79175C5.04932 5.79175 5.06217 5.79619 5.07242 5.80433C5.08268 5.81248 5.0897 5.82381 5.09232 5.83641Z" fill="#F5F5F5"/>
<path d="M5.09232 8.02905L5.22956 8.44796H5.66379C5.67688 8.44811 5.68959 8.45226 5.70008 8.45985C5.71058 8.46744 5.71832 8.47807 5.7222 8.4902C5.72607 8.50232 5.72588 8.51532 5.72165 8.52733C5.71742 8.53935 5.70938 8.54975 5.69867 8.55705L5.34881 8.81995L5.4793 9.24104C5.48337 9.25253 5.48361 9.26497 5.47998 9.2766C5.47634 9.28823 5.46903 9.29845 5.45906 9.30581C5.4491 9.31318 5.437 9.31731 5.42448 9.31763C5.41196 9.31795 5.39965 9.31444 5.3893 9.30759L5.03607 9.05015L4.68284 9.30759C4.67249 9.31444 4.66018 9.31795 4.64766 9.31763C4.63513 9.31731 4.62303 9.31318 4.61307 9.30581C4.60311 9.29845 4.5958 9.28823 4.59216 9.2766C4.58853 9.26497 4.58877 9.25253 4.59284 9.24104L4.72333 8.81995L4.37347 8.55705C4.36276 8.54975 4.35471 8.53935 4.35048 8.52733C4.34626 8.51532 4.34607 8.50232 4.34994 8.4902C4.35382 8.47807 4.36156 8.46744 4.37206 8.45985C4.38255 8.45226 4.39525 8.44811 4.40834 8.44796H4.84258L4.97982 8.02905C4.98243 8.01645 4.98946 8.00512 4.99972 7.99698C5.00997 7.98883 5.02282 7.98438 5.03607 7.98438C5.04932 7.98438 5.06217 7.98883 5.07242 7.99698C5.08268 8.00512 5.0897 8.01645 5.09232 8.02905Z" fill="#F5F5F5"/>
<path d="M5.09232 10.2229L5.22956 10.6418H5.66379C5.67688 10.642 5.68959 10.6461 5.70008 10.6537C5.71058 10.6613 5.71832 10.6719 5.7222 10.684C5.72607 10.6962 5.72588 10.7092 5.72165 10.7212C5.71742 10.7332 5.70938 10.7436 5.69867 10.7509L5.34881 11.0138L5.4793 11.4349C5.48337 11.4464 5.48361 11.4588 5.47998 11.4704C5.47634 11.4821 5.46903 11.4923 5.45906 11.4997C5.4491 11.507 5.437 11.5112 5.42448 11.5115C5.41196 11.5118 5.39965 11.5083 5.3893 11.5014L5.03607 11.244L4.68284 11.5014C4.67249 11.5083 4.66018 11.5118 4.64766 11.5115C4.63513 11.5112 4.62303 11.507 4.61307 11.4997C4.60311 11.4923 4.5958 11.4821 4.59216 11.4704C4.58853 11.4588 4.58877 11.4464 4.59284 11.4349L4.72333 11.0138L4.37347 10.7509C4.36276 10.7436 4.35471 10.7332 4.35048 10.7212C4.34626 10.7092 4.34607 10.6962 4.34994 10.684C4.35382 10.6719 4.36156 10.6613 4.37206 10.6537C4.38255 10.6461 4.39525 10.642 4.40834 10.6418H4.84258L4.97982 10.2229C4.98243 10.2103 4.98946 10.199 4.99972 10.1908C5.00997 10.1827 5.02282 10.1782 5.03607 10.1782C5.04932 10.1782 5.06217 10.1827 5.07242 10.1908C5.08268 10.199 5.0897 10.2103 5.09232 10.2229Z" fill="#F5F5F5"/>
<path d="M6.76285 2.52551L6.9001 2.94442H7.33433C7.34733 2.94478 7.35987 2.9491 7.37019 2.95678C7.38051 2.96445 7.38807 2.97508 7.3918 2.98715C7.39554 2.99923 7.39526 3.01214 7.391 3.02405C7.38674 3.03596 7.37872 3.04626 7.36808 3.05351L7.01822 3.31642L7.14984 3.73751C7.15391 3.749 7.15414 3.76143 7.15051 3.77306C7.14688 3.78469 7.13956 3.79491 7.1296 3.80227C7.11964 3.80964 7.10754 3.81377 7.09502 3.81409C7.0825 3.81441 7.07019 3.8109 7.05984 3.80405L6.7066 3.5466L6.35337 3.80405C6.34303 3.8109 6.33071 3.81441 6.31819 3.81409C6.30567 3.81377 6.29357 3.80964 6.28361 3.80227C6.27365 3.79491 6.26633 3.78469 6.2627 3.77306C6.25906 3.76143 6.2593 3.749 6.26337 3.73751L6.39499 3.31642L6.04513 3.05351C6.03449 3.04626 6.02647 3.03596 6.02221 3.02405C6.01795 3.01214 6.01768 2.99923 6.02141 2.98715C6.02515 2.97508 6.03271 2.96445 6.04302 2.95678C6.05334 2.9491 6.06589 2.94478 6.07888 2.94442H6.51311L6.65036 2.52551C6.65297 2.51291 6.66 2.50157 6.67026 2.49343C6.68051 2.48528 6.69335 2.48083 6.7066 2.48083C6.71986 2.48083 6.73271 2.48528 6.74296 2.49343C6.75321 2.50157 6.76024 2.51291 6.76285 2.52551Z" fill="#F5F5F5"/>
<path d="M6.76285 4.71825L6.9001 5.13716H7.33433C7.34733 5.13752 7.35987 5.14185 7.37019 5.14953C7.38051 5.1572 7.38807 5.16781 7.3918 5.17989C7.39554 5.19196 7.39526 5.20488 7.391 5.21679C7.38674 5.2287 7.37872 5.23901 7.36808 5.24625L7.01822 5.50916L7.14984 5.93025C7.15391 5.94174 7.15414 5.95418 7.15051 5.96581C7.14688 5.97744 7.13956 5.98766 7.1296 5.99502C7.11964 6.00239 7.10754 6.00652 7.09502 6.00684C7.0825 6.00716 7.07019 6.00364 7.05984 5.99679L6.7066 5.73934L6.35337 5.99679C6.34303 6.00364 6.33071 6.00716 6.31819 6.00684C6.30567 6.00652 6.29357 6.00239 6.28361 5.99502C6.27365 5.98766 6.26633 5.97744 6.2627 5.96581C6.25906 5.95418 6.2593 5.94174 6.26337 5.93025L6.39499 5.50916L6.04513 5.24625C6.03449 5.23901 6.02647 5.2287 6.02221 5.21679C6.01795 5.20488 6.01768 5.19196 6.02141 5.17989C6.02515 5.16781 6.03271 5.1572 6.04302 5.14953C6.05334 5.14185 6.06589 5.13752 6.07888 5.13716H6.51311L6.65036 4.71825C6.65297 4.70564 6.66 4.69431 6.67026 4.68617C6.68051 4.67802 6.69335 4.67358 6.7066 4.67358C6.71986 4.67358 6.73271 4.67802 6.74296 4.68617C6.75321 4.69431 6.76024 4.70564 6.76285 4.71825Z" fill="#F5F5F5"/>
<path d="M6.76285 6.91199L6.9001 7.3309H7.33433C7.34733 7.33126 7.35987 7.33558 7.37019 7.34325C7.38051 7.35092 7.38807 7.36155 7.3918 7.37363C7.39554 7.3857 7.39526 7.39861 7.391 7.41052C7.38674 7.42243 7.37872 7.43274 7.36808 7.43998L7.01822 7.70289L7.14984 8.12398C7.15391 8.13547 7.15414 8.14791 7.15051 8.15953C7.14688 8.17116 7.13956 8.18138 7.1296 8.18875C7.11964 8.19611 7.10754 8.20025 7.09502 8.20057C7.0825 8.20089 7.07019 8.19738 7.05984 8.19053L6.7066 7.93308L6.35337 8.19053C6.34303 8.19738 6.33071 8.20089 6.31819 8.20057C6.30567 8.20025 6.29357 8.19611 6.28361 8.18875C6.27365 8.18138 6.26633 8.17116 6.2627 8.15953C6.25906 8.14791 6.2593 8.13547 6.26337 8.12398L6.39499 7.70289L6.04513 7.43998C6.03449 7.43274 6.02647 7.42243 6.02221 7.41052C6.01795 7.39861 6.01768 7.3857 6.02141 7.37363C6.02515 7.36155 6.03271 7.35092 6.04302 7.34325C6.05334 7.33558 6.06589 7.33126 6.07888 7.3309H6.51311L6.65036 6.91199C6.65297 6.89939 6.66 6.88805 6.67026 6.87991C6.68051 6.87177 6.69335 6.86731 6.7066 6.86731C6.71986 6.86731 6.73271 6.87177 6.74296 6.87991C6.75321 6.88805 6.76024 6.89939 6.76285 6.91199Z" fill="#F5F5F5"/>
<path d="M6.76285 9.10693L6.9001 9.52585H7.33433C7.34733 9.52621 7.35987 9.53053 7.37019 9.5382C7.38051 9.54587 7.38807 9.5565 7.3918 9.56858C7.39554 9.58065 7.39526 9.59357 7.391 9.60548C7.38674 9.61739 7.37872 9.62769 7.36808 9.63493L7.01822 9.89785L7.14984 10.3189C7.15391 10.3304 7.15414 10.3429 7.15051 10.3545C7.14688 10.3661 7.13956 10.3763 7.1296 10.3837C7.11964 10.3911 7.10754 10.3952 7.09502 10.3955C7.0825 10.3958 7.07019 10.3923 7.05984 10.3855L6.7066 10.128L6.35337 10.3855C6.34303 10.3923 6.33071 10.3958 6.31819 10.3955C6.30567 10.3952 6.29357 10.3911 6.28361 10.3837C6.27365 10.3763 6.26633 10.3661 6.2627 10.3545C6.25906 10.3429 6.2593 10.3304 6.26337 10.3189L6.39499 9.89785L6.04513 9.63493C6.03449 9.62769 6.02647 9.61739 6.02221 9.60548C6.01795 9.59357 6.01768 9.58065 6.02141 9.56858C6.02515 9.5565 6.03271 9.54587 6.04302 9.5382C6.05334 9.53053 6.06589 9.52621 6.07888 9.52585H6.51311L6.65036 9.10693C6.65297 9.09433 6.66 9.083 6.67026 9.07486C6.68051 9.06671 6.69335 9.06226 6.7066 9.06226C6.71986 9.06226 6.73271 9.06671 6.74296 9.07486C6.75321 9.083 6.76024 9.09433 6.76285 9.10693Z" fill="#F5F5F5"/>
<path d="M8.43571 1.44994L8.57295 1.86885H9.00718C9.02027 1.869 9.03298 1.87316 9.04347 1.88075C9.05397 1.88834 9.06171 1.89896 9.06558 1.91109C9.06946 1.92321 9.06927 1.93622 9.06504 1.94823C9.06081 1.96025 9.05277 1.97065 9.04206 1.97794L8.69219 2.24086L8.82269 2.66194C8.82676 2.67343 8.82699 2.68587 8.82336 2.6975C8.81973 2.70912 8.81241 2.71935 8.80245 2.72671C8.79249 2.73408 8.7804 2.73821 8.76787 2.73853C8.75535 2.73885 8.74304 2.73534 8.73269 2.72849L8.37945 2.47104L8.02622 2.72849C8.01588 2.73534 8.00357 2.73885 7.99104 2.73853C7.97852 2.73821 7.96643 2.73408 7.95646 2.72671C7.9465 2.71935 7.93918 2.70912 7.93555 2.6975C7.93192 2.68587 7.93216 2.67343 7.93623 2.66194L8.06784 2.24086L7.71799 1.97794C7.70734 1.9707 7.69932 1.9604 7.69506 1.94849C7.6908 1.93658 7.69053 1.92366 7.69426 1.91159C7.698 1.89951 7.70556 1.88889 7.71587 1.88121C7.72619 1.87354 7.73874 1.86922 7.75173 1.86885H8.18597L8.32321 1.44994C8.32582 1.43734 8.33285 1.42601 8.34311 1.41787C8.35336 1.40972 8.3662 1.40527 8.37945 1.40527C8.39271 1.40527 8.40556 1.40972 8.41581 1.41787C8.42606 1.42601 8.43309 1.43734 8.43571 1.44994Z" fill="#F5F5F5"/>
<path d="M8.43546 3.64368L8.57271 4.06259H9.00694C9.02003 4.06273 9.03273 4.06689 9.04323 4.07447C9.05372 4.08206 9.06146 4.09269 9.06534 4.10482C9.06921 4.11694 9.06902 4.12994 9.0648 4.14196C9.06057 4.15397 9.05252 4.16437 9.04181 4.17167L8.69195 4.43458L8.82245 4.85567C8.82652 4.86716 8.82675 4.8796 8.82312 4.89122C8.81948 4.90285 8.81217 4.91307 8.80221 4.92044C8.79225 4.9278 8.78015 4.93194 8.76763 4.93226C8.75511 4.93258 8.7428 4.92907 8.73245 4.92222L8.37921 4.66476L8.02598 4.92222C8.01563 4.92907 8.00332 4.93258 7.9908 4.93226C7.97828 4.93194 7.96618 4.9278 7.95622 4.92044C7.94626 4.91307 7.93894 4.90285 7.9353 4.89122C7.93167 4.8796 7.93191 4.86716 7.93598 4.85567L8.0676 4.43458L7.71774 4.17167C7.7071 4.16443 7.69908 4.15412 7.69482 4.14221C7.69056 4.13029 7.69028 4.11739 7.69402 4.10532C7.69775 4.09324 7.70531 4.08261 7.71563 4.07494C7.72595 4.06727 7.73849 4.06295 7.75149 4.06259H8.18572L8.32297 3.64368C8.32558 3.63108 8.33261 3.61974 8.34286 3.6116C8.35312 3.60346 8.36596 3.599 8.37921 3.599C8.39246 3.599 8.40531 3.60346 8.41557 3.6116C8.42582 3.61974 8.43285 3.63108 8.43546 3.64368Z" fill="#F5F5F5"/>
<path d="M8.43546 5.83641L8.57271 6.25532H9.00694C9.02003 6.25546 9.03273 6.25963 9.04323 6.26722C9.05372 6.27481 9.06146 6.28543 9.06534 6.29755C9.06921 6.30968 9.06902 6.32269 9.0648 6.33471C9.06057 6.34672 9.05252 6.35712 9.04181 6.36442L8.69195 6.62732L8.82245 7.04842C8.82652 7.05991 8.82675 7.07235 8.82312 7.08397C8.81948 7.0956 8.81217 7.10582 8.80221 7.11319C8.79225 7.12055 8.78015 7.12469 8.76763 7.12501C8.75511 7.12532 8.7428 7.1218 8.73245 7.11495L8.37921 6.8575L8.02598 7.11495C8.01563 7.1218 8.00332 7.12532 7.9908 7.12501C7.97828 7.12469 7.96618 7.12055 7.95622 7.11319C7.94626 7.10582 7.93894 7.0956 7.9353 7.08397C7.93167 7.07235 7.93191 7.05991 7.93598 7.04842L8.0676 6.62732L7.71774 6.36442C7.7071 6.35718 7.69908 6.34687 7.69482 6.33496C7.69056 6.32304 7.69028 6.31013 7.69402 6.29805C7.69775 6.28598 7.70531 6.27536 7.71563 6.26769C7.72595 6.26002 7.73849 6.25569 7.75149 6.25532H8.18572L8.32297 5.83641C8.32558 5.82381 8.33261 5.81248 8.34286 5.80433C8.35312 5.79619 8.36596 5.79175 8.37921 5.79175C8.39246 5.79175 8.40531 5.79619 8.41557 5.80433C8.42582 5.81248 8.43285 5.82381 8.43546 5.83641Z" fill="#F5F5F5"/>
<path d="M8.43546 8.02905L8.57271 8.44796H9.00694C9.02003 8.44811 9.03273 8.45226 9.04323 8.45985C9.05372 8.46744 9.06146 8.47807 9.06534 8.4902C9.06921 8.50232 9.06902 8.51532 9.0648 8.52733C9.06057 8.53935 9.05252 8.54975 9.04181 8.55705L8.69195 8.81995L8.82245 9.24104C8.82652 9.25253 8.82675 9.26497 8.82312 9.2766C8.81948 9.28823 8.81217 9.29845 8.80221 9.30581C8.79225 9.31318 8.78015 9.31731 8.76763 9.31763C8.75511 9.31795 8.7428 9.31444 8.73245 9.30759L8.37921 9.05015L8.02598 9.30759C8.01563 9.31444 8.00332 9.31795 7.9908 9.31763C7.97828 9.31731 7.96618 9.31318 7.95622 9.30581C7.94626 9.29845 7.93894 9.28823 7.9353 9.2766C7.93167 9.26497 7.93191 9.25253 7.93598 9.24104L8.0676 8.81995L7.71774 8.55705C7.7071 8.5498 7.69908 8.53949 7.69482 8.52758C7.69056 8.51567 7.69028 8.50277 7.69402 8.49069C7.69775 8.47862 7.70531 8.46799 7.71563 8.46032C7.72595 8.45264 7.73849 8.44833 7.75149 8.44796H8.18572L8.32297 8.02905C8.32558 8.01645 8.33261 8.00512 8.34286 7.99698C8.35312 7.98883 8.36596 7.98438 8.37921 7.98438C8.39246 7.98438 8.40531 7.98883 8.41557 7.99698C8.42582 8.00512 8.43285 8.01645 8.43546 8.02905Z" fill="#F5F5F5"/>
<path d="M8.43546 10.2229L8.57271 10.6418H9.00694C9.02003 10.642 9.03273 10.6461 9.04323 10.6537C9.05372 10.6613 9.06146 10.6719 9.06534 10.684C9.06921 10.6962 9.06902 10.7092 9.0648 10.7212C9.06057 10.7332 9.05252 10.7436 9.04181 10.7509L8.69195 11.0138L8.82245 11.4349C8.82652 11.4464 8.82675 11.4588 8.82312 11.4704C8.81948 11.4821 8.81217 11.4923 8.80221 11.4997C8.79225 11.507 8.78015 11.5112 8.76763 11.5115C8.75511 11.5118 8.7428 11.5083 8.73245 11.5014L8.37921 11.244L8.02598 11.5014C8.01563 11.5083 8.00332 11.5118 7.9908 11.5115C7.97828 11.5112 7.96618 11.507 7.95622 11.4997C7.94626 11.4923 7.93894 11.4821 7.9353 11.4704C7.93167 11.4588 7.93191 11.4464 7.93598 11.4349L8.0676 11.0138L7.71774 10.7509C7.7071 10.7437 7.69908 10.7334 7.69482 10.7214C7.69056 10.7095 7.69028 10.6966 7.69402 10.6845C7.69775 10.6725 7.70531 10.6618 7.71563 10.6542C7.72595 10.6465 7.73849 10.6422 7.75149 10.6418H8.18572L8.32297 10.2229C8.32558 10.2103 8.33261 10.199 8.34286 10.1908C8.35312 10.1827 8.36596 10.1782 8.37921 10.1782C8.39246 10.1782 8.40531 10.1827 8.41557 10.1908C8.42582 10.199 8.43285 10.2103 8.43546 10.2229Z" fill="#F5F5F5"/>
<path d="M10.1085 2.5254L10.2458 2.94431H10.68C10.693 2.94467 10.7055 2.94899 10.7159 2.95667C10.7262 2.96434 10.7337 2.97497 10.7375 2.98704C10.7412 2.99912 10.7409 3.01203 10.7367 3.02394C10.7324 3.03585 10.7244 3.04615 10.7137 3.05339L10.3639 3.31631L10.4955 3.7374C10.4996 3.74889 10.4998 3.76132 10.4962 3.77295C10.4926 3.78457 10.4852 3.7948 10.4753 3.80216C10.4653 3.80953 10.4532 3.81366 10.4407 3.81398C10.4282 3.8143 10.4159 3.81079 10.4055 3.80394L10.0523 3.54649L9.69905 3.80394C9.6887 3.81079 9.6764 3.8143 9.66387 3.81398C9.65135 3.81366 9.63925 3.80953 9.62929 3.80216C9.61932 3.7948 9.61201 3.78457 9.60838 3.77295C9.60475 3.76132 9.60498 3.74889 9.60905 3.7374L9.74067 3.31631L9.39081 3.05339C9.3801 3.0461 9.37205 3.0357 9.36782 3.02368C9.36359 3.01167 9.3634 2.99866 9.36727 2.98654C9.37115 2.97441 9.3789 2.96379 9.3894 2.9562C9.39989 2.94861 9.4126 2.94445 9.42569 2.94431H9.85992L9.99716 2.5254C10.0002 2.51334 10.0074 2.50263 10.0175 2.49497C10.0276 2.48732 10.04 2.48315 10.0528 2.48315C10.0657 2.48315 10.0781 2.48732 10.0882 2.49497C10.0983 2.50263 10.1054 2.51334 10.1085 2.5254Z" fill="#F5F5F5"/>
<path d="M10.1085 4.71813L10.2458 5.13705H10.68C10.693 5.13741 10.7055 5.14174 10.7159 5.14941C10.7262 5.15709 10.7337 5.1677 10.7375 5.17978C10.7412 5.19185 10.7409 5.20477 10.7367 5.21668C10.7324 5.22859 10.7244 5.2389 10.7137 5.24614L10.3639 5.50905L10.4955 5.93014C10.4996 5.94163 10.4998 5.95407 10.4962 5.9657C10.4926 5.97732 10.4852 5.98755 10.4753 5.99491C10.4653 6.00228 10.4532 6.00641 10.4407 6.00673C10.4282 6.00705 10.4159 6.00352 10.4055 5.99668L10.0523 5.73923L9.69905 5.99668C9.6887 6.00352 9.6764 6.00705 9.66387 6.00673C9.65135 6.00641 9.63925 6.00228 9.62929 5.99491C9.61932 5.98755 9.61201 5.97732 9.60838 5.9657C9.60475 5.95407 9.60498 5.94163 9.60905 5.93014L9.74067 5.50905L9.39081 5.24614C9.3801 5.23885 9.37205 5.22844 9.36782 5.21643C9.36359 5.20442 9.3634 5.1914 9.36727 5.17928C9.37115 5.16715 9.3789 5.15654 9.3894 5.14895C9.39989 5.14136 9.4126 5.13719 9.42569 5.13705H9.85992L9.99716 4.71813C10.0002 4.70607 10.0074 4.69536 10.0175 4.68771C10.0276 4.68005 10.04 4.6759 10.0528 4.6759C10.0657 4.6759 10.0781 4.68005 10.0882 4.68771C10.0983 4.69536 10.1054 4.70607 10.1085 4.71813Z" fill="#F5F5F5"/>
<path d="M10.1085 6.912L10.2458 7.33091H10.68C10.693 7.33127 10.7055 7.33559 10.7159 7.34326C10.7262 7.35093 10.7337 7.36157 10.7375 7.37364C10.7412 7.38572 10.7409 7.39862 10.7367 7.41053C10.7324 7.42244 10.7244 7.43275 10.7137 7.43999L10.3639 7.7029L10.4955 8.12399C10.4996 8.13548 10.4998 8.14792 10.4962 8.15955C10.4926 8.17117 10.4852 8.18139 10.4753 8.18876C10.4653 8.19613 10.4532 8.20026 10.4407 8.20058C10.4282 8.2009 10.4159 8.19739 10.4055 8.19054L10.0523 7.93309L9.69905 8.19054C9.6887 8.19739 9.6764 8.2009 9.66387 8.20058C9.65135 8.20026 9.63925 8.19613 9.62929 8.18876C9.61932 8.18139 9.61201 8.17117 9.60838 8.15955C9.60475 8.14792 9.60498 8.13548 9.60905 8.12399L9.74067 7.7029L9.39081 7.43999C9.3801 7.43269 9.37205 7.42229 9.36782 7.41028C9.36359 7.39826 9.3634 7.38527 9.36727 7.37314C9.37115 7.36102 9.3789 7.35038 9.3894 7.3428C9.39989 7.33521 9.4126 7.33105 9.42569 7.33091H9.85992L9.99716 6.912C10.0002 6.89994 10.0074 6.88923 10.0175 6.88157C10.0276 6.87391 10.04 6.86975 10.0528 6.86975C10.0657 6.86975 10.0781 6.87391 10.0882 6.88157C10.0983 6.88923 10.1054 6.89994 10.1085 6.912Z" fill="#F5F5F5"/>
<path d="M10.1085 9.10682L10.2458 9.52573H10.68C10.693 9.5261 10.7055 9.53041 10.7159 9.53809C10.7262 9.54576 10.7337 9.55639 10.7375 9.56846C10.7412 9.58054 10.7409 9.59346 10.7367 9.60537C10.7324 9.61728 10.7244 9.62757 10.7137 9.63482L10.3639 9.89774L10.4955 10.3188C10.4996 10.3303 10.4998 10.3427 10.4962 10.3544C10.4926 10.366 10.4852 10.3762 10.4753 10.3836C10.4653 10.3909 10.4532 10.3951 10.4407 10.3954C10.4282 10.3957 10.4159 10.3922 10.4055 10.3854L10.0523 10.1279L9.69905 10.3854C9.6887 10.3922 9.6764 10.3957 9.66387 10.3954C9.65135 10.3951 9.63925 10.3909 9.62929 10.3836C9.61932 10.3762 9.61201 10.366 9.60838 10.3544C9.60475 10.3427 9.60498 10.3303 9.60905 10.3188L9.74067 9.89774L9.39081 9.63482C9.3801 9.62752 9.37205 9.61712 9.36782 9.6051C9.36359 9.59309 9.3634 9.58009 9.36727 9.56797C9.37115 9.55584 9.3789 9.54521 9.3894 9.53762C9.39989 9.53003 9.4126 9.52588 9.42569 9.52573H9.85992L9.99716 9.10682C10.0002 9.09476 10.0074 9.08405 10.0175 9.07639C10.0276 9.06874 10.04 9.06458 10.0528 9.06458C10.0657 9.06458 10.0781 9.06874 10.0882 9.07639C10.0983 9.08405 10.1054 9.09476 10.1085 9.10682Z" fill="#F5F5F5"/>
<path d="M11.7812 1.45012L11.9185 1.86903H12.3527C12.3658 1.86918 12.3785 1.87334 12.389 1.88093C12.3995 1.88851 12.4072 1.89914 12.4111 1.91126C12.415 1.92339 12.4148 1.93639 12.4106 1.94841C12.4063 1.96042 12.3983 1.97082 12.3876 1.97812L12.0377 2.24104L12.1693 2.66212C12.1734 2.67361 12.1737 2.68605 12.17 2.69768C12.1664 2.7093 12.1591 2.71952 12.1491 2.72689C12.1391 2.73426 12.127 2.73839 12.1145 2.73871C12.102 2.73903 12.0897 2.73552 12.0794 2.72867L11.7261 2.47122L11.3729 2.72867C11.3625 2.73552 11.3502 2.73903 11.3377 2.73871C11.3252 2.73839 11.3131 2.73426 11.3031 2.72689C11.2932 2.71952 11.2858 2.7093 11.2822 2.69768C11.2786 2.68605 11.2788 2.67361 11.2829 2.66212L11.4145 2.24104L11.0646 1.97812C11.0539 1.97082 11.0459 1.96042 11.0417 1.94841C11.0374 1.93639 11.0372 1.92339 11.0411 1.91126C11.045 1.89914 11.0527 1.88851 11.0632 1.88093C11.0737 1.87334 11.0864 1.86918 11.0995 1.86903H11.5337L11.671 1.45012C11.6744 1.43853 11.6817 1.42834 11.6916 1.42109C11.7016 1.41384 11.7137 1.40991 11.7261 1.40991C11.7385 1.40991 11.7507 1.41384 11.7606 1.42109C11.7705 1.42834 11.7778 1.43853 11.7812 1.45012Z" fill="#F5F5F5"/>
<path d="M11.7812 3.64361L11.9185 4.06252H12.3527C12.3658 4.06266 12.3785 4.06682 12.389 4.07441C12.3995 4.082 12.4072 4.09263 12.4111 4.10475C12.415 4.11688 12.4148 4.12988 12.4106 4.14189C12.4063 4.1539 12.3983 4.16431 12.3876 4.1716L12.0377 4.43451L12.1693 4.8556C12.1734 4.86709 12.1737 4.87953 12.17 4.89116C12.1664 4.90278 12.1591 4.91301 12.1491 4.92037C12.1391 4.92774 12.127 4.93187 12.1145 4.93219C12.102 4.93251 12.0897 4.929 12.0794 4.92215L11.7261 4.66469L11.3729 4.92215C11.3625 4.929 11.3502 4.93251 11.3377 4.93219C11.3252 4.93187 11.3131 4.92774 11.3031 4.92037C11.2932 4.91301 11.2858 4.90278 11.2822 4.89116C11.2786 4.87953 11.2788 4.86709 11.2829 4.8556L11.4145 4.43451L11.0646 4.1716C11.0539 4.16431 11.0459 4.1539 11.0417 4.14189C11.0374 4.12988 11.0372 4.11688 11.0411 4.10475C11.045 4.09263 11.0527 4.082 11.0632 4.07441C11.0737 4.06682 11.0864 4.06266 11.0995 4.06252H11.5337L11.671 3.64361C11.6744 3.63202 11.6817 3.62183 11.6916 3.61458C11.7016 3.60733 11.7137 3.60339 11.7261 3.60339C11.7385 3.60339 11.7507 3.60733 11.7606 3.61458C11.7705 3.62183 11.7778 3.63202 11.7812 3.64361Z" fill="#F5F5F5"/>
<path d="M11.7812 5.83634L11.9185 6.25525H12.3527C12.3658 6.2554 12.3785 6.25957 12.389 6.26716C12.3995 6.27474 12.4072 6.28536 12.4111 6.29749C12.415 6.30961 12.4148 6.32262 12.4106 6.33464C12.4063 6.34665 12.3983 6.35705 12.3876 6.36435L12.0377 6.62726L12.1693 7.04835C12.1734 7.05984 12.1737 7.07228 12.17 7.08391C12.1664 7.09553 12.1591 7.10575 12.1491 7.11312C12.1391 7.12049 12.127 7.12462 12.1145 7.12494C12.102 7.12526 12.0897 7.12173 12.0794 7.11488L11.7261 6.85744L11.3729 7.11488C11.3625 7.12173 11.3502 7.12526 11.3377 7.12494C11.3252 7.12462 11.3131 7.12049 11.3031 7.11312C11.2932 7.10575 11.2858 7.09553 11.2822 7.08391C11.2786 7.07228 11.2788 7.05984 11.2829 7.04835L11.4145 6.62726L11.0646 6.36435C11.0539 6.35705 11.0459 6.34665 11.0417 6.33464C11.0374 6.32262 11.0372 6.30961 11.0411 6.29749C11.045 6.28536 11.0527 6.27474 11.0632 6.26716C11.0737 6.25957 11.0864 6.2554 11.0995 6.25525H11.5337L11.671 5.83634C11.6744 5.82475 11.6817 5.81456 11.6916 5.80731C11.7016 5.80006 11.7137 5.79614 11.7261 5.79614C11.7385 5.79614 11.7507 5.80006 11.7606 5.80731C11.7705 5.81456 11.7778 5.82475 11.7812 5.83634Z" fill="#F5F5F5"/>
<path d="M11.7812 8.02911L11.9185 8.44802H12.3527C12.3658 8.44816 12.3785 8.45232 12.389 8.45991C12.3995 8.46749 12.4072 8.47813 12.4111 8.49025C12.415 8.50238 12.4148 8.51537 12.4106 8.52739C12.4063 8.5394 12.3983 8.5498 12.3876 8.5571L12.0377 8.82001L12.1693 9.2411C12.1734 9.25259 12.1737 9.26503 12.17 9.27666C12.1664 9.28828 12.1591 9.2985 12.1491 9.30587C12.1391 9.31324 12.127 9.31737 12.1145 9.31769C12.102 9.31801 12.0897 9.3145 12.0794 9.30765L11.7261 9.0502L11.3729 9.30765C11.3625 9.3145 11.3502 9.31801 11.3377 9.31769C11.3252 9.31737 11.3131 9.31324 11.3031 9.30587C11.2932 9.2985 11.2858 9.28828 11.2822 9.27666C11.2786 9.26503 11.2788 9.25259 11.2829 9.2411L11.4145 8.82001L11.0646 8.5571C11.0539 8.5498 11.0459 8.5394 11.0417 8.52739C11.0374 8.51537 11.0372 8.50238 11.0411 8.49025C11.045 8.47813 11.0527 8.46749 11.0632 8.45991C11.0737 8.45232 11.0864 8.44816 11.0995 8.44802H11.5337L11.671 8.02911C11.6744 8.01752 11.6817 8.00733 11.6916 8.00008C11.7016 7.99283 11.7137 7.98889 11.7261 7.98889C11.7385 7.98889 11.7507 7.99283 11.7606 8.00008C11.7705 8.00733 11.7778 8.01752 11.7812 8.02911Z" fill="#F5F5F5"/>
<path d="M11.7812 10.223L11.9185 10.6419H12.3527C12.3658 10.642 12.3785 10.6462 12.389 10.6538C12.3995 10.6613 12.4072 10.672 12.4111 10.6841C12.415 10.6962 12.4148 10.7092 12.4106 10.7212C12.4063 10.7333 12.3983 10.7437 12.3876 10.7509L12.0377 11.0139L12.1693 11.4349C12.1734 11.4464 12.1737 11.4589 12.17 11.4705C12.1664 11.4821 12.1591 11.4924 12.1491 11.4997C12.1391 11.5071 12.127 11.5112 12.1145 11.5115C12.102 11.5119 12.0897 11.5083 12.0794 11.5015L11.7261 11.2441L11.3729 11.5015C11.3625 11.5083 11.3502 11.5119 11.3377 11.5115C11.3252 11.5112 11.3131 11.5071 11.3031 11.4997C11.2932 11.4924 11.2858 11.4821 11.2822 11.4705C11.2786 11.4589 11.2788 11.4464 11.2829 11.4349L11.4145 11.0139L11.0646 10.7509C11.0539 10.7437 11.0459 10.7333 11.0417 10.7212C11.0374 10.7092 11.0372 10.6962 11.0411 10.6841C11.045 10.672 11.0527 10.6613 11.0632 10.6538C11.0737 10.6462 11.0864 10.642 11.0995 10.6419H11.5337L11.671 10.223C11.6744 10.2114 11.6817 10.2012 11.6916 10.1939C11.7016 10.1867 11.7137 10.1827 11.7261 10.1827C11.7385 10.1827 11.7507 10.1867 11.7606 10.1939C11.7705 10.2012 11.7778 10.2114 11.7812 10.223Z" fill="#F5F5F5"/>
<path d="M13.4538 2.52545L13.5911 2.94435H14.0253C14.0384 2.94449 14.0511 2.94865 14.0616 2.95624C14.0721 2.96383 14.0798 2.97446 14.0837 2.98658C14.0876 2.99871 14.0874 3.01171 14.0832 3.02373C14.0789 3.03574 14.0709 3.04614 14.0602 3.05344L13.7103 3.31635L13.8419 3.73745C13.846 3.74893 13.8462 3.76137 13.8426 3.77299C13.839 3.78462 13.8317 3.79484 13.8217 3.80221C13.8117 3.80957 13.7996 3.81371 13.7871 3.81403C13.7746 3.81435 13.7623 3.81084 13.7519 3.80399L13.3987 3.54653L13.0455 3.80399C13.0351 3.81084 13.0228 3.81435 13.0103 3.81403C12.9978 3.81371 12.9857 3.80957 12.9757 3.80221C12.9658 3.79484 12.9584 3.78462 12.9548 3.77299C12.9512 3.76137 12.9514 3.74893 12.9555 3.73745L13.0871 3.31635L12.7372 3.05344C12.7265 3.04614 12.7185 3.03574 12.7142 3.02373C12.71 3.01171 12.7098 2.99871 12.7137 2.98658C12.7176 2.97446 12.7253 2.96383 12.7358 2.95624C12.7463 2.94865 12.759 2.94449 12.7721 2.94435H13.2063L13.3436 2.52545C13.347 2.51385 13.3543 2.50366 13.3642 2.49641C13.3742 2.48915 13.3863 2.48523 13.3987 2.48523C13.4111 2.48523 13.4233 2.48915 13.4332 2.49641C13.4431 2.50366 13.4504 2.51385 13.4538 2.52545Z" fill="#F5F5F5"/>
<path d="M13.4538 4.71818L13.5911 5.13709H14.0253C14.0384 5.13723 14.0511 5.1414 14.0616 5.14899C14.0721 5.15658 14.0798 5.1672 14.0837 5.17932C14.0876 5.19145 14.0874 5.20446 14.0832 5.21647C14.0789 5.22849 14.0709 5.23889 14.0602 5.24619L13.7103 5.50909L13.8419 5.93019C13.846 5.94167 13.8462 5.95412 13.8426 5.96574C13.839 5.97737 13.8317 5.98759 13.8217 5.99496C13.8117 6.00232 13.7996 6.00646 13.7871 6.00677C13.7746 6.00709 13.7623 6.00357 13.7519 5.99672L13.3987 5.73927L13.0455 5.99672C13.0351 6.00357 13.0228 6.00709 13.0103 6.00677C12.9978 6.00646 12.9857 6.00232 12.9757 5.99496C12.9658 5.98759 12.9584 5.97737 12.9548 5.96574C12.9512 5.95412 12.9514 5.94167 12.9555 5.93019L13.0871 5.50909L12.7372 5.24619C12.7265 5.23889 12.7185 5.22849 12.7142 5.21647C12.71 5.20446 12.7098 5.19145 12.7137 5.17932C12.7176 5.1672 12.7253 5.15658 12.7358 5.14899C12.7463 5.1414 12.759 5.13723 12.7721 5.13709H13.2063L13.3436 4.71818C13.347 4.70659 13.3543 4.6964 13.3642 4.68915C13.3742 4.6819 13.3863 4.67798 13.3987 4.67798C13.4111 4.67798 13.4233 4.6819 13.4332 4.68915C13.4431 4.6964 13.4504 4.70659 13.4538 4.71818Z" fill="#F5F5F5"/>
<path d="M13.4538 6.91204L13.5911 7.33096H14.0253C14.0384 7.3311 14.0511 7.33525 14.0616 7.34284C14.0721 7.35043 14.0798 7.36106 14.0837 7.37319C14.0876 7.38531 14.0874 7.39831 14.0832 7.41032C14.0789 7.42234 14.0709 7.43274 14.0602 7.44004L13.7103 7.70294L13.8419 8.12404C13.846 8.13552 13.8462 8.14797 13.8426 8.15959C13.839 8.17122 13.8317 8.18144 13.8217 8.1888C13.8117 8.19617 13.7996 8.2003 13.7871 8.20062C13.7746 8.20094 13.7623 8.19743 13.7519 8.19059L13.3987 7.93314L13.0455 8.19059C13.0351 8.19743 13.0228 8.20094 13.0103 8.20062C12.9978 8.2003 12.9857 8.19617 12.9757 8.1888C12.9658 8.18144 12.9584 8.17122 12.9548 8.15959C12.9512 8.14797 12.9514 8.13552 12.9555 8.12404L13.0871 7.70294L12.7372 7.44004C12.7265 7.43274 12.7185 7.42234 12.7142 7.41032C12.71 7.39831 12.7098 7.38531 12.7137 7.37319C12.7176 7.36106 12.7253 7.35043 12.7358 7.34284C12.7463 7.33525 12.759 7.3311 12.7721 7.33096H13.2063L13.3436 6.91204C13.347 6.90045 13.3543 6.89026 13.3642 6.88301C13.3742 6.87576 13.3863 6.87183 13.3987 6.87183C13.4111 6.87183 13.4233 6.87576 13.4332 6.88301C13.4431 6.89026 13.4504 6.90045 13.4538 6.91204Z" fill="#F5F5F5"/>
<path d="M13.4538 9.10687L13.5911 9.52578H14.0253C14.0384 9.52592 14.0511 9.53008 14.0616 9.53766C14.0721 9.54525 14.0798 9.55588 14.0837 9.56801C14.0876 9.58014 14.0874 9.59313 14.0832 9.60515C14.0789 9.61716 14.0709 9.62756 14.0602 9.63486L13.7103 9.89778L13.8419 10.3189C13.846 10.3303 13.8462 10.3428 13.8426 10.3544C13.839 10.366 13.8317 10.3763 13.8217 10.3836C13.8117 10.391 13.7996 10.3951 13.7871 10.3954C13.7746 10.3958 13.7623 10.3923 13.7519 10.3854L13.3987 10.128L13.0455 10.3854C13.0351 10.3923 13.0228 10.3958 13.0103 10.3954C12.9978 10.3951 12.9857 10.391 12.9757 10.3836C12.9658 10.3763 12.9584 10.366 12.9548 10.3544C12.9512 10.3428 12.9514 10.3303 12.9555 10.3189L13.0871 9.89778L12.7372 9.63486C12.7265 9.62756 12.7185 9.61716 12.7142 9.60515C12.71 9.59313 12.7098 9.58014 12.7137 9.56801C12.7176 9.55588 12.7253 9.54525 12.7358 9.53766C12.7463 9.53008 12.759 9.52592 12.7721 9.52578H13.2063L13.3436 9.10687C13.347 9.09528 13.3543 9.08509 13.3642 9.07784C13.3742 9.07058 13.3863 9.06665 13.3987 9.06665C13.4111 9.06665 13.4233 9.07058 13.4332 9.07784C13.4431 9.08509 13.4504 9.09528 13.4538 9.10687Z" fill="#F5F5F5"/>
<path d="M15.127 1.44994L15.2642 1.86885H15.6985C15.7115 1.86922 15.724 1.87354 15.7343 1.88121C15.7446 1.88889 15.7522 1.89951 15.7559 1.91159C15.7597 1.92366 15.7594 1.93658 15.7551 1.94849C15.7509 1.9604 15.7429 1.9707 15.7322 1.97794L15.3823 2.24086L15.5128 2.66194C15.5169 2.67343 15.5171 2.68587 15.5135 2.6975C15.5099 2.70912 15.5026 2.71935 15.4926 2.72671C15.4826 2.73408 15.4706 2.73821 15.458 2.73853C15.4455 2.73885 15.4332 2.73534 15.4228 2.72849L15.0696 2.47104L14.7164 2.72849C14.706 2.73534 14.6937 2.73885 14.6812 2.73853C14.6687 2.73821 14.6566 2.73408 14.6466 2.72671C14.6367 2.71935 14.6293 2.70912 14.6257 2.6975C14.6221 2.68587 14.6223 2.67343 14.6264 2.66194L14.758 2.24086L14.4081 1.97794C14.3974 1.97065 14.3894 1.96025 14.3852 1.94823C14.3809 1.93622 14.3807 1.92321 14.3846 1.91109C14.3885 1.89896 14.3962 1.88834 14.4067 1.88075C14.4172 1.87316 14.4299 1.869 14.443 1.86885H14.8772L15.0145 1.44994C15.0171 1.43734 15.0241 1.42601 15.0344 1.41787C15.0446 1.40972 15.0575 1.40527 15.0707 1.40527C15.084 1.40527 15.0968 1.40972 15.1071 1.41787C15.1173 1.42601 15.1244 1.43734 15.127 1.44994Z" fill="#F5F5F5"/>
<path d="M15.127 3.64368L15.2642 4.06259H15.6985C15.7115 4.06295 15.724 4.06727 15.7343 4.07494C15.7446 4.08261 15.7522 4.09324 15.7559 4.10532C15.7597 4.11739 15.7594 4.13029 15.7551 4.14221C15.7509 4.15412 15.7429 4.16443 15.7322 4.17167L15.3823 4.43458L15.5128 4.85567C15.5169 4.86716 15.5171 4.8796 15.5135 4.89122C15.5099 4.90285 15.5026 4.91307 15.4926 4.92044C15.4826 4.9278 15.4706 4.93194 15.458 4.93226C15.4455 4.93258 15.4332 4.92907 15.4228 4.92222L15.0696 4.66476L14.7164 4.92222C14.706 4.92907 14.6937 4.93258 14.6812 4.93226C14.6687 4.93194 14.6566 4.9278 14.6466 4.92044C14.6367 4.91307 14.6293 4.90285 14.6257 4.89122C14.6221 4.8796 14.6223 4.86716 14.6264 4.85567L14.758 4.43458L14.4081 4.17167C14.3974 4.16437 14.3894 4.15397 14.3852 4.14196C14.3809 4.12994 14.3807 4.11694 14.3846 4.10482C14.3885 4.09269 14.3962 4.08206 14.4067 4.07447C14.4172 4.06689 14.4299 4.06273 14.443 4.06259H14.8772L15.0145 3.64368C15.0171 3.63108 15.0241 3.61974 15.0344 3.6116C15.0446 3.60346 15.0575 3.599 15.0707 3.599C15.084 3.599 15.0968 3.60346 15.1071 3.6116C15.1173 3.61974 15.1244 3.63108 15.127 3.64368Z" fill="#F5F5F5"/>
<path d="M15.127 5.83641L15.2642 6.25532H15.6985C15.7115 6.25569 15.724 6.26002 15.7343 6.26769C15.7446 6.27536 15.7522 6.28598 15.7559 6.29805C15.7597 6.31013 15.7594 6.32304 15.7551 6.33496C15.7509 6.34687 15.7429 6.35718 15.7322 6.36442L15.3823 6.62732L15.5128 7.04842C15.5169 7.05991 15.5171 7.07235 15.5135 7.08397C15.5099 7.0956 15.5026 7.10582 15.4926 7.11319C15.4826 7.12055 15.4706 7.12469 15.458 7.12501C15.4455 7.12532 15.4332 7.1218 15.4228 7.11495L15.0696 6.8575L14.7164 7.11495C14.706 7.1218 14.6937 7.12532 14.6812 7.12501C14.6687 7.12469 14.6566 7.12055 14.6466 7.11319C14.6367 7.10582 14.6293 7.0956 14.6257 7.08397C14.6221 7.07235 14.6223 7.05991 14.6264 7.04842L14.758 6.62732L14.4081 6.36442C14.3974 6.35712 14.3894 6.34672 14.3852 6.33471C14.3809 6.32269 14.3807 6.30968 14.3846 6.29755C14.3885 6.28543 14.3962 6.27481 14.4067 6.26722C14.4172 6.25963 14.4299 6.25546 14.443 6.25532H14.8772L15.0145 5.83641C15.0171 5.82381 15.0241 5.81248 15.0344 5.80433C15.0446 5.79619 15.0575 5.79175 15.0707 5.79175C15.084 5.79175 15.0968 5.79619 15.1071 5.80433C15.1173 5.81248 15.1244 5.82381 15.127 5.83641Z" fill="#F5F5F5"/>
<path d="M15.127 8.02905L15.2642 8.44796H15.6985C15.7115 8.44833 15.724 8.45264 15.7343 8.46032C15.7446 8.46799 15.7522 8.47862 15.7559 8.49069C15.7597 8.50277 15.7594 8.51567 15.7551 8.52758C15.7509 8.53949 15.7429 8.5498 15.7322 8.55705L15.3823 8.81995L15.5128 9.24104C15.5169 9.25253 15.5171 9.26497 15.5135 9.2766C15.5099 9.28823 15.5026 9.29845 15.4926 9.30581C15.4826 9.31318 15.4706 9.31731 15.458 9.31763C15.4455 9.31795 15.4332 9.31444 15.4228 9.30759L15.0696 9.05015L14.7164 9.30759C14.706 9.31444 14.6937 9.31795 14.6812 9.31763C14.6687 9.31731 14.6566 9.31318 14.6466 9.30581C14.6367 9.29845 14.6293 9.28823 14.6257 9.2766C14.6221 9.26497 14.6223 9.25253 14.6264 9.24104L14.758 8.81995L14.4081 8.55705C14.3974 8.54975 14.3894 8.53935 14.3852 8.52733C14.3809 8.51532 14.3807 8.50232 14.3846 8.4902C14.3885 8.47807 14.3962 8.46744 14.4067 8.45985C14.4172 8.45226 14.4299 8.44811 14.443 8.44796H14.8772L15.0145 8.02905C15.0171 8.01645 15.0241 8.00512 15.0344 7.99698C15.0446 7.98883 15.0575 7.98438 15.0707 7.98438C15.084 7.98438 15.0968 7.98883 15.1071 7.99698C15.1173 8.00512 15.1244 8.01645 15.127 8.02905Z" fill="#F5F5F5"/>
<path d="M15.127 10.2229L15.2642 10.6418H15.6985C15.7115 10.6422 15.724 10.6465 15.7343 10.6542C15.7446 10.6618 15.7522 10.6725 15.7559 10.6845C15.7597 10.6966 15.7594 10.7095 15.7551 10.7214C15.7509 10.7334 15.7429 10.7437 15.7322 10.7509L15.3823 11.0138L15.5128 11.4349C15.5169 11.4464 15.5171 11.4588 15.5135 11.4704C15.5099 11.4821 15.5026 11.4923 15.4926 11.4997C15.4826 11.507 15.4706 11.5112 15.458 11.5115C15.4455 11.5118 15.4332 11.5083 15.4228 11.5014L15.0696 11.244L14.7164 11.5014C14.706 11.5083 14.6937 11.5118 14.6812 11.5115C14.6687 11.5112 14.6566 11.507 14.6466 11.4997C14.6367 11.4923 14.6293 11.4821 14.6257 11.4704C14.6221 11.4588 14.6223 11.4464 14.6264 11.4349L14.758 11.0138L14.4081 10.7509C14.3974 10.7436 14.3894 10.7332 14.3852 10.7212C14.3809 10.7092 14.3807 10.6962 14.3846 10.684C14.3885 10.6719 14.3962 10.6613 14.4067 10.6537C14.4172 10.6461 14.4299 10.642 14.443 10.6418H14.8772L15.0145 10.2229C15.0171 10.2103 15.0241 10.199 15.0344 10.1908C15.0446 10.1827 15.0575 10.1782 15.0707 10.1782C15.084 10.1782 15.0968 10.1827 15.1071 10.1908C15.1173 10.199 15.1244 10.2103 15.127 10.2229Z" fill="#F5F5F5"/>
</svg>
