<svg width="28" height="26" viewBox="0 0 28 26" fill="none" xmlns="http://www.w3.org/2000/svg">
<path d="M13.9998 7.50663L15.2932 10.56L15.9198 12.04L17.5198 12.1733L20.8132 12.4533L18.3065 14.6266L17.0932 15.68L17.4532 17.2533L18.1998 20.4666L15.3732 18.76L13.9998 17.9066L12.6265 18.7333L9.79984 20.44L10.5465 17.2266L10.9065 15.6533L9.69317 14.6L7.1865 12.4266L10.4798 12.1466L12.0798 12.0133L12.7065 10.5333L13.9998 7.50663ZM13.9998 0.666626L10.2532 9.50663L0.666504 10.32L7.9465 16.6266L5.75984 26L13.9998 21.0266L22.2398 26L20.0532 16.6266L27.3332 10.32L17.7465 9.50663L13.9998 0.666626Z" fill="black"/>
</svg>
